<svg width="24" height="24" viewBox="0 0 24 24" fill="none" xmlns="http://www.w3.org/2000/svg">
<path d="M3 11H21V23H3V11ZM12 15C12.5304 15 13.0391 15.2107 13.4142 15.5858C13.7893 15.9609 14 16.4696 14 17C14 17.5304 13.7893 18.0391 13.4142 18.4142C13.0391 18.7893 12.5304 19 12 19C11.4696 19 10.9609 18.7893 10.5858 18.4142C10.2107 18.0391 10 17.5304 10 17C10 16.4696 10.2107 15.9609 10.5858 15.5858C10.9609 15.2107 11.4696 15 12 15ZM7 13C7 13.5304 6.78929 14.0391 6.41421 14.4142C6.03914 14.7893 5.53043 15 5 15V19C5.53043 19 6.03914 19.2107 6.41421 19.5858C6.78929 19.9609 7 20.4696 7 21H17C17 20.4696 17.2107 19.9609 17.5858 19.5858C17.9609 19.2107 18.4696 19 19 19V15C18.4696 15 17.9609 14.7893 17.5858 14.4142C17.2107 14.0391 17 13.5304 17 13H7ZM17 5V10H15.5V6.5H9.875L12.3 8.93L11.24 10L7 5.75L11.24 1.51L12.3 2.57L9.875 5H17Z" fill="#467BF6"/>
</svg>
