<svg width="18" height="18" viewBox="0 0 18 18" fill="none" xmlns="http://www.w3.org/2000/svg">
<rect width="18" height="18" fill="#E5E5E5"/>
<path fill-rule="evenodd" clip-rule="evenodd" d="M16.5 0H1.5C0.67 0 0 0.67 0 1.5V16.5C0 17.33 0.67 18 1.5 18H16.5C17.33 18 18 17.33 18 16.5V1.5C18 0.67 17.33 0 16.5 0Z" fill="white"/>
<path d="M1.5 0.53H16.5C17.0373 0.53 17.47 0.962711 17.47 1.5V16.5C17.47 17.0373 17.0373 17.47 16.5 17.47H1.5C0.962711 17.47 0.53 17.0373 0.53 16.5V1.5C0.53 0.962711 0.962711 0.53 1.5 0.53Z" stroke="black" stroke-opacity="0.59" stroke-width="1.06"/>
</svg>
