<svg width="18" height="18" viewBox="0 0 18 18" fill="none" xmlns="http://www.w3.org/2000/svg">
<rect width="18" height="18" fill="#E5E5E5"/>
<path fill-rule="evenodd" clip-rule="evenodd" d="M16.5 0H1.5C0.67 0 0 0.67 0 1.5V16.5C0 17.33 0.67 18 1.5 18H16.5C17.33 18 18 17.33 18 16.5V1.5C18 0.67 17.33 0 16.5 0Z" fill="#467BF6"/>
<path fill-rule="evenodd" clip-rule="evenodd" d="M14.0398 6.30499L7.77282 12.6H7.76782C7.68882 12.68 7.47282 12.858 7.22382 12.858C7.04582 12.858 6.84482 12.759 6.67582 12.591L4.05082 9.96599C3.97582 9.89099 3.97582 9.77299 4.05082 9.69799L4.88482 8.86399C4.92282 8.82699 4.96982 8.80799 5.01682 8.80799C5.06382 8.80799 5.10982 8.82699 5.14782 8.86399L7.22882 10.945L12.9478 5.18399C12.9848 5.14699 13.0318 5.12799 13.0788 5.12799C13.1308 5.12799 13.1778 5.14699 13.2098 5.18399L14.0308 6.03299C14.1148 6.11299 14.1148 6.22999 14.0398 6.30499Z" fill="white"/>
</svg>
